<svg width="100%" height="100%" version="1.1"
     xmlns="http://www.w3.org/2000/svg">
    <path data-type="Curve" data-name="Curve"
          d="M221.31960086732724,134.3257624245895 C227.12657527576445,141.2462450379461 232.83724089934884,148.05195131095587 238.75480449245453,155.10422898244462 C249.0789055152161,167.4080134666268 260.036818493394,180.46714562570668 270.68817783688473,193.160941389318 C279.40547708159966,203.5498140819211 288.13226205976093,213.94999143143153 296.83990570127696,224.3273570242349 C303.1708220176351,231.8722492886655 309.68911659850863,239.64045027301006 316.00854151114345,247.17164761577334 C327.6665833028138,261.06516080361246 338.6438613316263,274.14737133135867 350.2324880849351,287.9581588978518 C358.8935563364074,279.29709064637933 367.55462458787974,270.63602239490695 376.2156928393521,261.9749541434345 C389.5779259656222,248.61272101716423 402.94015909189244,235.250487890894 416.3023922181626,221.88825476462375 L489.0003908086287,308.5263557592202 C503.6416364943051,295.34341899070364 517.5711609094957,281.4307370198192 530.7208608325515,266.80588573529735 C543.4418145052905,252.65787804312882 555.4235525478789,237.85441971835309 566.6037060216107,222.42101054269352 C585.572092068941,238.33737627903648 603.340756993932,253.24705646410925 623.2275106498495,269.93402412210304 C651.3012819614274,293.49071527540343 683.263586057767,320.3102728542183 712.8363734192418,345.124787822116 C742.3942125016306,369.92675969454586 771.9520515840193,394.7287315669756 801.509890666408,419.53070343940544 C817.3398736336674,432.8136363087755 833.1698566009267,446.09656917814544 848.999839568186,459.3795020475154 L816.6284054206994,529.297072578531 L841.6863514635961,559.159969798182 C837.0459348395026,565.4186573399743 833.0801025422682,572.045008371474 829.3422863135343,579.062508204773 C820.9288357800381,594.8581985499558 813.9720087854292,612.8186896960816 807.74606365257,630.7859267365624 C740.878600946838,551.0963878293543 674.0111382411061,471.4068489221461 607.143675535374,391.71731001493794 C593.4318701362644,375.37621666959785 579.7200647371546,359.0351233242577 566.008259338045,342.69402997891757 L483.83748545624,447.1823945036298 C475.9985644268001,437.84033220473424 467.9397057331602,428.23615840438123 460.21748231727844,419.03317090568993 C447.37155449921715,403.7239902783111 435.438402147142,389.5026130917521 422.9304866754045,374.59625989244455 C414.01784482472493,383.5089017431239 404.3960755285434,393.1306710393053 395.52758772178635,401.99915884606236 C387.3077894411177,410.21895712673097 379.9997538569496,417.52699271089915 372.1596762418418,425.36707032600697 C359.86192444274656,437.6648221251022 347.56417264365126,449.9625739241975 336.1050427701958,461.421703797653 L322.47489954726154,475.0518470205872 L331.95566517683477,465.571081391014 C326.91649089404007,471.08950061796764 322.73683194740886,475.47794391806303 322.47489954726154,475.0518470205872 C322.40209926522925,474.9334196160665 322.7224296105328,474.37085180704776 323.1130256430282,473.6833811920576 L294.8440825929613,502.6826639748875 C287.7385638304153,491.4218710822063 280.6380220936346,480.16896575667096 273.59907512533476,469.0136755320577 C268.0120663410027,460.15941014870293 262.45638166717185,451.35478706912244 256.9788079725308,442.67395390392954 C248.94996177945958,429.9498760190017 241.0840692880911,417.4840463981735 233.20047845484723,404.9901685279394 C224.1513774866577,414.0392694961288 215.10227651846824,423.0883704643183 206.05317555027878,432.1374714325077 C200.86679006082875,437.3238569219577 190.80651810445116,447.3841288783353 183.18318938153737,455.00745760124903 C159.0174131848375,479.1732337979488 143.0075548847494,495.18309209803687 118.35923632296739,519.8314106598191 C109.23585888152682,528.9547881012597 99.61774856674988,538.5728984160368 91.27447568859138,546.9161712941952 C84.48445264789498,553.7061943348916 77.297378320559,560.8932686622275 70.45843142856369,567.7322155542228 C62.537611657058065,575.6530353257283 55.09770455807205,583.0929424247145 47.10089339260244,591.089753590184 C38.72050469934965,599.4701422834369 29.809025139308545,608.3816218434779 20.752345674760114,617.4383013080264 C16.47545796598609,614.0237116445979 11.43843135468208,612.0842166650776 6.644461857332728,612.4590481959932 C3.1886638039417807,612.7292505983246 -0.08783325103543582,614.2996915061516 -3.1065754870656117,613.7730177672242 C-7.526324099029171,613.001913332139 -11.09051727116238,608.0427056106909 -14.51736386880835,602.6388545583721 C-20.679647365324563,592.9214478380916 -26.018926950442406,582.3608217306936 -31.10258167142315,571.5338075391281 C-39.40921046662923,564.2728190727977 -46.56591815997102,555.9292053387229 -52.68451887960432,546.8493553194584 C-60.50610281051981,535.242320923846 -66.58264672420677,522.4352297825403 -71.22520042519625,508.97642911964533 L-23.26544490166898,447.5907413552798 L-32.85666992550413,419.53070343940533 L-1.3425405987631165,419.53070343940533 C15.687054698915633,397.73916795372287 32.71159769142191,375.94370623918627 49.73844887454162,354.1500183989051 C70.76010388636531,327.2431415908219 91.7780848951862,300.33347527044623 112.8038140078188,273.4300320153645 C131.08725402730175,250.03548106129952 149.37718685279745,226.646105221033 167.64351493164637,203.23841570593922 C185.5563355337037,180.28373421863742 203.4503630139789,157.31438603911465 221.31960086732724,134.3257624245895 Z"
          fill="rgb(255,255,255)" stroke="none" stroke-width="2" opacity="1"></path>
</svg>
